<svg width="328" height="410" viewBox="0 0 328 410" fill="none" xmlns="http://www.w3.org/2000/svg">
<path d="M290.229 152.575L290.218 152.571C281.052 148.774 280.342 140.293 280.342 137.786C280.338 135.274 281.052 126.794 290.218 122.996C294.839 121.083 298.433 117.486 300.346 112.868C302.259 108.251 302.259 103.167 300.346 98.5458L288.155 69.1169C284.201 59.5903 273.246 55.0384 263.701 58.9963C254.528 62.7974 248.03 57.3016 246.259 55.5268C244.484 53.7519 238.988 47.2502 242.789 38.0808C244.699 33.4633 244.699 28.3793 242.786 23.7618C240.872 19.1406 237.275 15.5436 232.661 13.6339L203.232 1.4432C193.706 -2.50008 182.736 2.04454 178.782 11.5748C174.988 20.7296 166.511 21.4439 164 21.4439C161.489 21.4439 153.008 20.7332 149.211 11.5675C147.301 6.94632 143.704 3.34925 139.083 1.43592C134.465 -0.477418 129.381 -0.477418 124.757 1.43592L95.3387 13.6229C90.7175 15.5363 87.1204 19.1297 85.2071 23.7509C83.2938 28.372 83.2938 33.456 85.2071 38.0735C89.0083 47.2393 83.5124 53.7446 81.7376 55.5158C79.9664 57.2907 73.472 62.7901 64.2953 58.989C59.6778 57.0793 54.5901 57.0793 49.969 58.989C45.3478 60.9023 41.7508 64.4994 39.8411 69.1169L27.654 98.5385C25.7407 103.16 25.7407 108.244 27.654 112.865C29.5674 117.486 33.1644 121.083 37.782 122.993C46.9477 126.79 47.6584 135.274 47.6584 137.782C47.6584 140.289 46.9441 148.77 37.771 152.571C28.2408 156.525 23.6998 167.495 27.6468 177.022L39.8338 206.447C41.7471 211.068 45.3442 214.661 49.9617 216.575C54.5756 218.484 59.6632 218.488 64.2844 216.575C73.4501 212.785 79.9518 218.269 81.7267 220.048C82.6232 220.944 84.46 223.051 85.5788 226.094C95.12 213.754 107.471 203.692 121.706 196.946C103.262 183.724 91.1803 162.16 91.1803 137.786C91.1803 97.6383 123.846 64.9732 163.993 64.9732C204.144 64.9732 236.809 97.6383 236.809 137.786C236.809 162.16 224.727 183.72 206.283 196.942C220.514 203.688 232.865 213.747 242.407 226.083C243.525 223.044 245.362 220.941 246.259 220.044C248.034 218.269 254.524 212.77 263.705 216.575C273.239 220.511 284.201 215.973 288.155 206.443L300.346 177.018C304.293 167.491 299.752 156.525 290.229 152.575Z" fill="#d9d9d9"/>
<path d="M163.996 88.1227C136.612 88.1227 114.337 110.401 114.337 137.782C114.337 165.163 136.616 187.441 163.996 187.441C191.377 187.441 213.659 165.163 213.659 137.782C213.659 110.401 191.381 88.1227 163.996 88.1227Z" fill="#d9d9d9"/>
<path d="M239.95 286.548C239.95 243.693 204.271 209.016 161.063 210.653C119.964 212.209 88.0498 247.286 88.0498 288.414V312.329C88.0498 320.981 95.0653 327.996 103.717 327.996L224.283 328C232.935 328 239.95 320.988 239.95 312.333V286.548Z" fill="#d9d9d9"/>
</svg>
