<svg width="440" height="440" viewBox="0 0 440 440" fill="none" xmlns="http://www.w3.org/2000/svg">
<path fill-rule="evenodd" clip-rule="evenodd" d="M220 255.657C247.614 255.657 270 198.427 270 127.829C270 57.2309 247.614 0 220 0C192.386 0 170 57.2309 170 127.829C170 198.427 192.386 255.657 220 255.657ZM220 158.777C242.091 158.777 260 134.68 260 104.954C260 75.2287 242.091 51.1315 220 51.1315C197.909 51.1315 180 75.2287 180 104.954C180 134.68 197.909 158.777 220 158.777Z" fill="#D9D9D9"/>
<ellipse cx="220" cy="118.41" rx="40" ry="40.367" fill="#D9D9D9"/>
<path d="M208.03 116.768C214.031 108.821 225.969 108.821 231.97 116.768L392.372 329.171C399.834 339.054 392.785 353.211 380.401 353.211H59.5987C47.2152 353.211 40.1657 339.054 47.6285 329.171L208.03 116.768Z" fill="#D9D9D9"/>
<path d="M317 183.196C317 174.911 323.716 168.196 332 168.196H366C374.284 168.196 381 174.911 381 183.196V314.664C381 322.948 374.284 329.664 366 329.664H332C323.716 329.664 317 322.948 317 314.664V183.196Z" fill="#D9D9D9"/>
<path d="M61 183.196C61 174.911 67.7157 168.196 76 168.196H110C118.284 168.196 125 174.911 125 183.196V314.664C125 322.948 118.284 329.664 110 329.664H76C67.7157 329.664 61 322.948 61 314.664V183.196Z" fill="#D9D9D9"/>
<path d="M170 115.917C170 107.633 176.716 100.917 185 100.917H255C263.284 100.917 270 107.633 270 115.917V317.355C270 325.639 263.284 332.355 255 332.355H185C176.716 332.355 170 325.639 170 317.355V115.917Z" fill="#D9D9D9"/>
<ellipse cx="349" cy="180.306" rx="32" ry="67.2783" fill="#D9D9D9"/>
<ellipse cx="93" cy="180.306" rx="32" ry="67.2783" fill="#D9D9D9"/>
<path d="M139.313 346.882C145.317 339.419 156.683 339.419 162.687 346.882L196.32 388.686C204.216 398.501 197.229 413.089 184.632 413.089H117.368C104.771 413.089 97.7843 398.501 105.68 388.686L139.313 346.882Z" fill="#D9D9D9"/>
<path d="M276.313 346.882C282.317 339.419 293.683 339.419 299.687 346.882L333.32 388.686C341.216 398.501 334.229 413.089 321.632 413.089H254.368C241.771 413.089 234.784 398.501 242.68 388.686L276.313 346.882Z" fill="#D9D9D9"/>
<path d="M93 306.988C93 298.704 99.7157 291.988 108 291.988H328C336.284 291.988 343 298.704 343 306.988V357.722C343 366.006 336.284 372.722 328 372.722H108C99.7157 372.722 93 366.006 93 357.722V306.988Z" fill="#D9D9D9"/>
</svg>
