<svg width="420" height="357" viewBox="0 0 420 357" fill="none" xmlns="http://www.w3.org/2000/svg">
<path fill-rule="evenodd" clip-rule="evenodd" d="M278.6 238C272.114 253.976 243.865 266 210 266C176.135 266 147.886 253.976 141.4 238C140.482 240.262 140 242.603 140 245C140 264.33 171.34 280 210 280C248.66 280 280 264.33 280 245C280 242.603 279.518 240.262 278.6 238Z" fill="#D9D9D9"/>
<path fill-rule="evenodd" clip-rule="evenodd" d="M278.6 203C272.114 218.976 243.865 231 210 231C176.135 231 147.886 218.976 141.4 203C140.482 205.262 140 207.603 140 210C140 229.33 171.34 245 210 245C248.66 245 280 229.33 280 210C280 207.603 279.518 205.262 278.6 203Z" fill="#D9D9D9"/>
<path fill-rule="evenodd" clip-rule="evenodd" d="M278.6 168C272.114 183.976 243.865 196 210 196C176.135 196 147.886 183.976 141.4 168C140.482 170.262 140 172.603 140 175C140 194.33 171.34 210 210 210C248.66 210 280 194.33 280 175C280 172.603 279.518 170.262 278.6 168Z" fill="#D9D9D9"/>
<path fill-rule="evenodd" clip-rule="evenodd" d="M278.6 133C272.114 148.976 243.865 161 210 161C176.135 161 147.886 148.976 141.4 133C140.482 135.262 140 137.603 140 140C140 159.33 171.34 175 210 175C248.66 175 280 159.33 280 140C280 137.603 279.518 135.262 278.6 133Z" fill="#D9D9D9"/>
<path fill-rule="evenodd" clip-rule="evenodd" d="M418.6 259C412.114 274.976 383.865 287 350 287C316.135 287 287.886 274.976 281.4 259C280.482 261.262 280 263.603 280 266C280 285.33 311.34 301 350 301C388.66 301 420 285.33 420 266C420 263.603 419.518 261.262 418.6 259Z" fill="#D9D9D9"/>
<path fill-rule="evenodd" clip-rule="evenodd" d="M418.6 224C412.114 239.976 383.865 252 350 252C316.135 252 287.886 239.976 281.4 224C280.482 226.262 280 228.603 280 231C280 250.33 311.34 266 350 266C388.66 266 420 250.33 420 231C420 228.603 419.518 226.262 418.6 224Z" fill="#D9D9D9"/>
<path fill-rule="evenodd" clip-rule="evenodd" d="M418.6 189C412.114 204.976 383.865 217 350 217C316.135 217 287.886 204.976 281.4 189C280.482 191.262 280 193.603 280 196C280 215.33 311.34 231 350 231C388.66 231 420 215.33 420 196C420 193.603 419.518 191.262 418.6 189Z" fill="#D9D9D9"/>
<ellipse cx="350" cy="161" rx="70" ry="35" fill="#D9D9D9"/>
<path fill-rule="evenodd" clip-rule="evenodd" d="M138.6 259C132.114 274.976 103.865 287 70 287C36.1346 287 7.88605 274.976 1.40027 259C0.482056 261.262 0 263.603 0 266C0 285.33 31.3401 301 70 301C108.66 301 140 285.33 140 266C140 263.603 139.518 261.262 138.6 259Z" fill="#D9D9D9"/>
<path fill-rule="evenodd" clip-rule="evenodd" d="M278.6 98C272.114 113.976 243.865 126 210 126C176.135 126 147.886 113.976 141.4 98C140.482 100.262 140 102.603 140 105C140 124.33 171.34 140 210 140C248.66 140 280 124.33 280 105C280 102.603 279.518 100.262 278.6 98Z" fill="#D9D9D9"/>
<path fill-rule="evenodd" clip-rule="evenodd" d="M278.6 63C272.114 78.9756 243.865 91 210 91C176.135 91 147.886 78.9756 141.4 63C140.482 65.2618 140 67.6027 140 70C140 89.33 171.34 105 210 105C248.66 105 280 89.33 280 70C280 67.6027 279.518 65.2618 278.6 63Z" fill="#D9D9D9"/>
<ellipse cx="210" cy="35" rx="70" ry="35" fill="#D9D9D9"/>
<path fill-rule="evenodd" clip-rule="evenodd" d="M138.6 224C132.114 239.976 103.865 252 70 252C36.1346 252 7.88605 239.976 1.40027 224C0.482056 226.262 0 228.603 0 231C0 250.33 31.3401 266 70 266C108.66 266 140 250.33 140 231C140 228.603 139.518 226.262 138.6 224Z" fill="#D9D9D9"/>
<path fill-rule="evenodd" clip-rule="evenodd" d="M138.6 189C132.114 204.976 103.865 217 70 217C36.1346 217 7.88605 204.976 1.40027 189C0.482056 191.262 0 193.603 0 196C0 215.33 31.3401 231 70 231C108.66 231 140 215.33 140 196C140 193.603 139.518 191.262 138.6 189Z" fill="#D9D9D9"/>
<path fill-rule="evenodd" clip-rule="evenodd" d="M138.6 154C132.114 169.976 103.865 182 70 182C36.1346 182 7.88605 169.976 1.40027 154C0.482056 156.262 0 158.603 0 161C0 180.33 31.3401 196 70 196C108.66 196 140 180.33 140 161C140 158.603 139.518 156.262 138.6 154Z" fill="#D9D9D9"/>
<path fill-rule="evenodd" clip-rule="evenodd" d="M138.6 119C132.114 134.976 103.865 147 70 147C36.1346 147 7.88605 134.976 1.40027 119C0.482056 121.262 0 123.603 0 126C0 145.33 31.3401 161 70 161C108.66 161 140 145.33 140 126C140 123.603 139.518 121.262 138.6 119Z" fill="#D9D9D9"/>
<ellipse cx="70" cy="91" rx="70" ry="35" fill="#D9D9D9"/>
<path fill-rule="evenodd" clip-rule="evenodd" d="M242.141 316.5C236.864 333.217 207.917 346 173 346C138.083 346 109.136 333.217 103.859 316.5C103.294 318.292 103 320.129 103 322C103 341.33 134.34 357 173 357C211.66 357 243 341.33 243 322C243 320.129 242.706 318.292 242.141 316.5Z" fill="#D9D9D9"/>
<ellipse cx="173" cy="290" rx="70" ry="35" fill="#D9D9D9"/>
</svg>
