<svg width="476" height="534" viewBox="0 0 476 534" fill="none" xmlns="http://www.w3.org/2000/svg">
<circle cx="238" cy="238" r="50" fill="#D9D9D9"/>
<path d="M238 121L272.641 221.5H203.359L238 121Z" fill="#D9D9D9"/>
<path fill-rule="evenodd" clip-rule="evenodd" d="M100.885 92.3992C135.333 59.9459 181.299 39.5821 232 38.0883L232 102.643L203.56 185.238C201.593 186.525 199.702 187.918 197.896 189.411L100.885 92.3992ZM219.265 177.832C225.184 175.992 231.476 175 238 175C244.802 175 251.351 176.078 257.488 178.072L244 138.9V175H238H232V140.849L219.265 177.832ZM273.311 185.818L244 100.694V38.0883C294.789 39.5847 340.825 60.0163 375.294 92.5675L278.293 189.568C276.697 188.239 275.034 186.987 273.311 185.818ZM383.769 101.063L286.746 198.086C294.464 207.501 299.508 219.193 300.718 232H437.912C436.42 181.386 416.124 135.492 383.769 101.063ZM300.718 244H437.912C436.507 291.668 418.423 335.149 389.295 368.81L291.603 271.118C296.569 263.098 299.784 253.881 300.718 244ZM381.168 377.653L284.271 280.756C274.035 291.828 259.875 299.218 244 300.718V437.912C297.732 436.329 346.145 413.552 381.168 377.653ZM232 300.718V437.912C181.367 436.42 135.458 416.109 101.025 383.733L198.046 286.712C207.467 294.449 219.174 299.506 232 300.718ZM92.5314 375.256L189.534 278.253C181.658 268.78 176.507 256.962 175.282 244H38.0883C39.5841 294.77 60.0012 340.791 92.5314 375.256ZM175.282 232H38.0883C39.5821 181.299 59.9459 135.333 92.3992 100.885L189.411 197.896C181.604 207.344 176.5 219.106 175.282 232Z" fill="#D9D9D9"/>
<circle cx="238" cy="238" r="226" stroke="#D9D9D9" stroke-width="24"/>
<path fill-rule="evenodd" clip-rule="evenodd" d="M117.562 466.222L54.7357 515.374C47.2476 521.232 51.3901 533.25 60.8974 533.25H415.103C424.61 533.25 428.752 521.232 421.264 515.374L358.438 466.222C322.486 485.234 281.5 496 238 496C194.5 496 153.515 485.235 117.562 466.222Z" fill="#D9D9D9"/>
</svg>
