<svg width="267" height="186" viewBox="0 0 267 186" fill="none" xmlns="http://www.w3.org/2000/svg">
<ellipse cx="101" cy="41" rx="100" ry="15" transform="rotate(-15 101 41)" fill="url(#paint0_radial_35_95)"/>
<path fill-rule="evenodd" clip-rule="evenodd" d="M104.845 24.4406L112.47 52.896C156.695 39.6677 188.789 24.7647 186.897 17.7039C185.005 10.6432 149.759 13.784 104.845 24.4406Z" fill="#FFC328"/>
<path d="M91.0033 30.7377L104.932 24.7641L106.053 28.9467L91.0033 30.7377Z" fill="#FFB800"/>
<path d="M97.2149 53.9198L111.143 47.9463L112.264 52.1288L97.2149 53.9198Z" fill="#FFB800"/>
<path d="M94.1092 42.3288L108.038 36.3552L109.158 40.5378L94.1092 42.3288Z" fill="#FFB800"/>
<ellipse cx="120.475" cy="145.371" rx="100" ry="15" transform="rotate(-15 120.475 145.371)" fill="url(#paint1_radial_35_95)"/>
<path fill-rule="evenodd" clip-rule="evenodd" d="M124.32 128.811L131.945 157.267C176.17 144.038 208.264 129.135 206.372 122.075C204.48 115.014 169.234 118.155 124.32 128.811Z" fill="#FFC328"/>
<path d="M110.478 135.108L124.407 129.135L125.527 133.317L110.478 135.108Z" fill="#FFB800"/>
<path d="M116.69 158.291L130.618 152.317L131.739 156.5L116.69 158.291Z" fill="#FFB800"/>
<path d="M113.584 146.7L127.513 140.726L128.633 144.909L113.584 146.7Z" fill="#FFB800"/>
<ellipse cx="166.475" cy="81.3708" rx="100" ry="15" transform="rotate(-15 166.475 81.3708)" fill="url(#paint2_radial_35_95)"/>
<path fill-rule="evenodd" clip-rule="evenodd" d="M170.32 64.8113L177.945 93.2667C222.17 80.0384 254.264 65.1354 252.372 58.0747C250.48 51.014 215.234 54.1548 170.32 64.8113Z" fill="#FFC328"/>
<path d="M156.478 71.1084L170.407 65.1349L171.527 69.3174L156.478 71.1084Z" fill="#FFB800"/>
<path d="M162.69 94.2906L176.618 88.3171L177.739 92.4996L162.69 94.2906Z" fill="#FFB800"/>
<path d="M159.584 82.6996L173.513 76.726L174.633 80.9086L159.584 82.6996Z" fill="#FFB800"/>
<defs>
<radialGradient id="paint0_radial_35_95" cx="0" cy="0" r="1" gradientUnits="userSpaceOnUse" gradientTransform="translate(101 41) rotate(90) scale(15 100)">
<stop stop-color="#FFC328"/>
<stop offset="1" stop-color="#FFC328" stop-opacity="0"/>
</radialGradient>
<radialGradient id="paint1_radial_35_95" cx="0" cy="0" r="1" gradientUnits="userSpaceOnUse" gradientTransform="translate(120.475 145.371) rotate(90) scale(15 100)">
<stop stop-color="#FFC328"/>
<stop offset="1" stop-color="#FFC328" stop-opacity="0"/>
</radialGradient>
<radialGradient id="paint2_radial_35_95" cx="0" cy="0" r="1" gradientUnits="userSpaceOnUse" gradientTransform="translate(166.475 81.3708) rotate(90) scale(15 100)">
<stop stop-color="#FFC328"/>
<stop offset="1" stop-color="#FFC328" stop-opacity="0"/>
</radialGradient>
</defs>
</svg>
