<svg width="200" height="200" viewBox="0 0 200 200" fill="none" xmlns="http://www.w3.org/2000/svg">
<circle cx="100" cy="100" r="100" fill="url(#paint0_radial_35_68)"/>
<path fill-rule="evenodd" clip-rule="evenodd" d="M91.4784 104.085C96.3599 108.967 110.434 102.807 122.914 90.3268C135.394 77.8468 141.554 63.7724 136.673 58.8908C131.791 54.0093 117.717 60.1691 105.237 72.6491C92.7566 85.1292 86.5968 99.2036 91.4784 104.085ZM108.605 86.9589C112.51 90.8642 119.936 89.7702 125.19 84.5154C130.445 79.2606 131.539 71.835 127.634 67.9297C123.729 64.0245 116.303 65.1185 111.048 70.3733C105.793 75.628 104.699 83.0537 108.605 86.9589Z" fill="black"/>
<ellipse cx="115.74" cy="79.823" rx="10" ry="10.0917" transform="rotate(45 115.74 79.823)" fill="black"/>
<path d="M99.1603 79.4748C109.024 78.099 117.464 86.54 116.089 96.4032L112.075 125.175C110.365 137.44 95.369 142.466 86.6125 133.71L61.8538 108.951C53.0973 100.194 58.1233 85.199 70.3881 83.4882L99.1603 79.4748Z" fill="black"/>
<path d="M118.43 111.428C121.554 108.304 126.62 108.304 129.744 111.428V111.428C132.868 114.552 132.868 119.618 129.744 122.742L112.514 139.972C109.39 143.096 104.324 143.096 101.2 139.972V139.972C98.0758 136.848 98.0758 131.782 101.2 128.658L118.43 111.428Z" fill="black"/>
<path d="M73.1752 66.1733C76.2994 63.0491 81.3647 63.0491 84.4889 66.1733V66.1733C87.6131 69.2975 87.6131 74.3628 84.4889 77.487L67.2588 94.7171C64.1346 97.8413 59.0693 97.8413 55.9451 94.7171V94.7171C52.8209 91.5929 52.8209 86.5276 55.9451 83.4034L73.1752 66.1733Z" fill="black"/>
<path d="M101.155 76.7307C106.037 71.8491 113.951 71.8491 118.833 76.7307V76.7307C123.714 81.6122 123.714 89.5268 118.833 94.4083L95.5977 117.643C90.7161 122.525 82.8016 122.525 77.92 117.643V117.643C73.0385 112.762 73.0385 104.847 77.92 99.9657L101.155 76.7307Z" fill="black"/>
<ellipse cx="127.603" cy="113.569" rx="8" ry="16.8196" transform="rotate(45 127.603 113.569)" fill="black"/>
<ellipse cx="82.3481" cy="68.3141" rx="8" ry="16.8196" transform="rotate(45 82.3481 68.3141)" fill="black"/>
<path d="M56.1121 106.487C61.0494 105.952 65.2162 110.119 64.6813 115.056V115.056C63.978 121.549 56.0686 124.336 51.4505 119.718V119.718C46.8325 115.1 49.6191 107.19 56.1121 106.487V106.487Z" fill="black"/>
<path d="M80.3305 130.705C85.2678 130.17 89.4346 134.337 88.8997 139.275V139.275C88.1963 145.768 80.287 148.554 75.6689 143.936V143.936C71.0509 139.318 73.8375 131.409 80.3305 130.705V130.705Z" fill="black"/>
<path d="M55.4694 95.1928C59.4105 91.2518 65.8002 91.2518 69.7413 95.1928L99.6636 125.115C103.605 129.056 103.605 135.446 99.6636 139.387V139.387C95.7225 143.328 89.3328 143.328 85.3917 139.387L55.4694 109.465C51.5283 105.524 51.5283 99.1339 55.4694 95.1928V95.1928Z" fill="black"/>
<defs>
<radialGradient id="paint0_radial_35_68" cx="0" cy="0" r="1" gradientUnits="userSpaceOnUse" gradientTransform="translate(100 100) rotate(90) scale(100)">
<stop stop-color="#29FF24"/>
<stop offset="1" stop-color="#D9D9D9" stop-opacity="0"/>
</radialGradient>
</defs>
</svg>
