<svg width="264" height="185" viewBox="0 0 264 185" fill="none" xmlns="http://www.w3.org/2000/svg">
<path d="M123.772 75.3985C128.768 72.1207 135.232 72.1207 140.228 75.3985L204.336 117.458C216.793 125.631 211.006 145 196.108 145H67.8921C52.9938 145 47.2072 125.631 59.6638 117.458L123.772 75.3985Z" fill="#D9D9D9"/>
<path d="M68 78C68 42.6538 96.6538 14 132 14V14C167.346 14 196 42.6538 196 78V120H68V78Z" fill="#D9D9D9"/>
<path d="M108 156H156V161C156 174.255 145.255 185 132 185V185C118.745 185 108 174.255 108 161V156Z" fill="#D9D9D9"/>
<path d="M124 8C124 3.58172 127.582 0 132 0V0C136.418 0 140 3.58172 140 8V48H124V8Z" fill="#D9D9D9"/>
</svg>
